<svg xmlns="http://www.w3.org/2000/svg" width="256" height="256" xml:space="preserve"><g style="stroke:none;stroke-width:0;stroke-dasharray:none;stroke-linecap:butt;stroke-linejoin:miter;stroke-miterlimit:10;fill:none;fill-rule:nonzero;opacity:1" transform="matrix(2.81 0 0 2.81 1.407 1.407)"><circle cx="45" cy="45" r="45" style="stroke:none;stroke-width:1px;stroke-dasharray:none;stroke-linecap:butt;stroke-linejoin:miter;stroke-miterlimit:10;fill:#ffc843;fill-rule:nonzero;opacity:1"/><circle cx="45" cy="45" r="35" style="stroke:none;stroke-width:1px;stroke-dasharray:none;stroke-linecap:butt;stroke-linejoin:miter;stroke-miterlimit:10;fill:#d38700;fill-rule:nonzero;opacity:1"/><path d="m46.524 26.367 5.019 10.169c.248.501.726.849 1.279.93l11.222 1.631c1.394.203 1.95 1.915.942 2.898l-8.12 7.915c-.4.39-.583.953-.489 1.504l1.917 11.176c.238 1.388-1.219 2.447-2.465 1.791l-10.037-5.277a1.7 1.7 0 0 0-1.581 0l-10.037 5.277c-1.247.655-2.703-.403-2.465-1.791l1.917-11.176a1.697 1.697 0 0 0-.489-1.504l-8.12-7.915c-1.008-.983-.452-2.696.942-2.898l11.222-1.631a1.697 1.697 0 0 0 1.279-.93l5.019-10.169c.621-1.263 2.421-1.263 3.045 0z" style="stroke:none;stroke-width:1px;stroke-dasharray:none;stroke-linecap:butt;stroke-linejoin:miter;stroke-miterlimit:10;fill:#ffc843;fill-rule:nonzero;opacity:1"/></g></svg>